<?xml version="1.0" encoding="UTF-8" standalone="no"?>
<!DOCTYPE svg PUBLIC "-//W3C//DTD SVG 1.1//EN"
 "http://www.w3.org/Graphics/SVG/1.1/DTD/svg11.dtd">
<!-- Generated by graphviz version 2.42.4 (0)
 -->
<!-- Title: ERD Pages: 1 -->
<svg width="694pt" height="232pt"
 viewBox="0.00 0.00 694.00 231.50" xmlns="http://www.w3.org/2000/svg" xmlns:xlink="http://www.w3.org/1999/xlink">
<g id="graph0" class="graph" transform="scale(1 1) rotate(0) translate(4 227.5)">
<title>ERD</title>
<polygon fill="white" stroke="transparent" points="-4,4 -4,-227.5 690,-227.5 690,4 -4,4"/>
<!-- clientes -->
<g id="node1" class="node">
<title>clientes</title>
<polygon fill="none" stroke="black" points="1.5,-149 1.5,-223 186.5,-223 186.5,-149 1.5,-149"/>
<text text-anchor="middle" x="34.5" y="-183.5" font-family="Arial" font-size="10.00">CLIENTES</text>
<polyline fill="none" stroke="black" points="67.5,-149 67.5,-223 "/>
<text text-anchor="start" x="75.5" y="-211" font-family="Arial" font-size="10.00">id_cliente (PK)</text>
<text text-anchor="start" x="75.5" y="-200" font-family="Arial" font-size="10.00">nombre_completo</text>
<text text-anchor="start" x="75.5" y="-189" font-family="Arial" font-size="10.00">identificacion (UK)</text>
<text text-anchor="start" x="75.5" y="-178" font-family="Arial" font-size="10.00">direccion</text>
<text text-anchor="start" x="75.5" y="-167" font-family="Arial" font-size="10.00">telefono</text>
<text text-anchor="start" x="75.5" y="-156" font-family="Arial" font-size="10.00">correo_electronico (UK)</text>
</g>
<!-- pedidos -->
<g id="node4" class="node">
<title>pedidos</title>
<polygon fill="none" stroke="black" points="260,-105 260,-179 402,-179 402,-105 260,-105"/>
<text text-anchor="middle" x="291" y="-139.5" font-family="Arial" font-size="10.00">PEDIDOS</text>
<polyline fill="none" stroke="black" points="322,-105 322,-179 "/>
<text text-anchor="start" x="330" y="-167" font-family="Arial" font-size="10.00">id_pedido (PK)</text>
<text text-anchor="start" x="330" y="-156" font-family="Arial" font-size="10.00">fecha_pedido</text>
<text text-anchor="start" x="330" y="-145" font-family="Arial" font-size="10.00">id_cliente (FK)</text>
<text text-anchor="start" x="330" y="-134" font-family="Arial" font-size="10.00">id_sede (FK)</text>
<text text-anchor="start" x="330" y="-123" font-family="Arial" font-size="10.00">total_sin_iva</text>
<text text-anchor="start" x="330" y="-112" font-family="Arial" font-size="10.00">total_con_iva</text>
</g>
<!-- clientes&#45;&gt;pedidos -->
<g id="edge1" class="edge">
<title>clientes&#45;&gt;pedidos</title>
<path fill="none" stroke="black" d="M186.53,-168.86C207.46,-164.94 229.55,-160.81 249.96,-156.99"/>
<polygon fill="black" stroke="black" points="250.64,-160.42 259.83,-155.14 249.35,-153.54 250.64,-160.42"/>
<text text-anchor="middle" x="217" y="-166.8" font-family="Arial" font-size="9.00">1 a N</text>
</g>
<!-- sedes -->
<g id="node2" class="node">
<title>sedes</title>
<polygon fill="none" stroke="black" points="0,-66.5 0,-129.5 188,-129.5 188,-66.5 0,-66.5"/>
<text text-anchor="middle" x="25.5" y="-95.5" font-family="Arial" font-size="10.00">SEDES</text>
<polyline fill="none" stroke="black" points="51,-66.5 51,-129.5 "/>
<text text-anchor="start" x="59" y="-117.5" font-family="Arial" font-size="10.00">id_sede (PK)</text>
<text text-anchor="start" x="59" y="-106.5" font-family="Arial" font-size="10.00">nombre_sede (UK)</text>
<text text-anchor="start" x="59" y="-95.5" font-family="Arial" font-size="10.00">ubicacion</text>
<text text-anchor="start" x="59" y="-84.5" font-family="Arial" font-size="10.00">capacidad_almacenamiento</text>
<text text-anchor="start" x="59" y="-73.5" font-family="Arial" font-size="10.00">encargado</text>
</g>
<!-- sedes&#45;&gt;pedidos -->
<g id="edge2" class="edge">
<title>sedes&#45;&gt;pedidos</title>
<path fill="none" stroke="black" d="M188.22,-115.45C208.61,-119.27 230.02,-123.28 249.84,-126.99"/>
<polygon fill="black" stroke="black" points="249.27,-130.45 259.74,-128.85 250.56,-123.57 249.27,-130.45"/>
<text text-anchor="middle" x="217" y="-124.8" font-family="Arial" font-size="9.00">1 a N</text>
</g>
<!-- productos -->
<g id="node3" class="node">
<title>productos</title>
<polygon fill="none" stroke="black" points="246,-0.5 246,-85.5 416,-85.5 416,-0.5 246,-0.5"/>
<text text-anchor="middle" x="286.5" y="-40.5" font-family="Arial" font-size="10.00">PRODUCTOS</text>
<polyline fill="none" stroke="black" points="327,-0.5 327,-85.5 "/>
<text text-anchor="start" x="335" y="-73.5" font-family="Arial" font-size="10.00">id_producto (PK)</text>
<text text-anchor="start" x="335" y="-62.5" font-family="Arial" font-size="10.00">nombre</text>
<text text-anchor="start" x="335" y="-51.5" font-family="Arial" font-size="10.00">categoria</text>
<text text-anchor="start" x="335" y="-40.5" font-family="Arial" font-size="10.00">precio</text>
<text text-anchor="start" x="335" y="-29.5" font-family="Arial" font-size="10.00">volumen_ml</text>
<text text-anchor="start" x="335" y="-18.5" font-family="Arial" font-size="10.00">stock_actual</text>
<text text-anchor="start" x="335" y="-7.5" font-family="Arial" font-size="10.00">stock_minimo</text>
</g>
<!-- detalle -->
<g id="node5" class="node">
<title>detalle</title>
<polygon fill="none" stroke="black" points="474,-107 474,-159 686,-159 686,-107 474,-107"/>
<text text-anchor="middle" x="526" y="-130.5" font-family="Arial" font-size="10.00">DETALLE_PEDIDO</text>
<polyline fill="none" stroke="black" points="578,-107 578,-159 "/>
<text text-anchor="start" x="586" y="-147" font-family="Arial" font-size="10.00">id_pedido (PK, FK)</text>
<text text-anchor="start" x="586" y="-136" font-family="Arial" font-size="10.00">id_producto (PK, FK)</text>
<text text-anchor="start" x="586" y="-125" font-family="Arial" font-size="10.00">cantidad</text>
<text text-anchor="start" x="586" y="-114" font-family="Arial" font-size="10.00">subtotal</text>
</g>
<!-- productos&#45;&gt;detalle -->
<g id="edge4" class="edge">
<title>productos&#45;&gt;detalle</title>
<path fill="none" stroke="black" d="M416.31,-73.72C442.7,-83.34 471.75,-93.92 497.91,-103.45"/>
<polygon fill="black" stroke="black" points="496.81,-106.78 507.41,-106.91 499.21,-100.2 496.81,-106.78"/>
<text text-anchor="middle" x="445" y="-90.8" font-family="Arial" font-size="9.00">1 a N</text>
</g>
<!-- auditoria -->
<g id="node6" class="node">
<title>auditoria</title>
<polygon fill="none" stroke="black" points="474,-6 474,-80 686,-80 686,-6 474,-6"/>
<text text-anchor="middle" x="535.5" y="-40.5" font-family="Arial" font-size="10.00">AUDITORIA_PRECIOS</text>
<polyline fill="none" stroke="black" points="597,-6 597,-80 "/>
<text text-anchor="start" x="605" y="-68" font-family="Arial" font-size="10.00">id_auditoria (PK)</text>
<text text-anchor="start" x="605" y="-57" font-family="Arial" font-size="10.00">id_producto (FK)</text>
<text text-anchor="start" x="605" y="-46" font-family="Arial" font-size="10.00">precio_anterior</text>
<text text-anchor="start" x="605" y="-35" font-family="Arial" font-size="10.00">precio_nuevo</text>
<text text-anchor="start" x="605" y="-24" font-family="Arial" font-size="10.00">fecha_cambio</text>
<text text-anchor="start" x="605" y="-13" font-family="Arial" font-size="10.00">usuario_bd</text>
</g>
<!-- productos&#45;&gt;auditoria -->
<g id="edge5" class="edge">
<title>productos&#45;&gt;auditoria</title>
<path fill="none" stroke="black" d="M416.31,-43C431.45,-43 447.45,-43 463.29,-43"/>
<polygon fill="black" stroke="black" points="463.66,-46.5 473.66,-43 463.66,-39.5 463.66,-46.5"/>
<text text-anchor="middle" x="445" y="-45.8" font-family="Arial" font-size="9.00">1 a N</text>
</g>
<!-- pedidos&#45;&gt;detalle -->
<g id="edge3" class="edge">
<title>pedidos&#45;&gt;detalle</title>
<path fill="none" stroke="black" d="M402.12,-139.45C421.24,-138.75 442.47,-137.97 463.41,-137.21"/>
<polygon fill="black" stroke="black" points="463.78,-140.7 473.65,-136.84 463.52,-133.71 463.78,-140.7"/>
<text text-anchor="middle" x="445" y="-140.8" font-family="Arial" font-size="9.00">1 a N</text>
</g>
</g>
</svg>
